# xmcd CD database file generated by OrangeCD 6.5
#
# Track frame offsets:
#	150
#	12863
#	27761
#	44806
#	57283
#	72527
#	89057
#	99381
#	116168
#	131860
#	141942
#	165064
#	179317
#
# Disc length: 2507 seconds
#
# Revision: 0
# Processed by: cddbd v1.5.2PL0 Copyright (c) Steve Scherf et al.
# Submitted via: OrangeCD 6.5
#
DISCID=b909c90d
DTITLE=Red Molly - The Red Album
DYEAR=2014
DGENRE=
TTITLE0=Clinch River Blues
TTITLE1=I Am Listening
TTITLE2=You Don't Have the Heart for It
TTITLE3=Willow Tree
TTITLE4=Homeward Bound
TTITLE5=When It's All Wrong
TTITLE6=My Baby Loves Me
TTITLE7=With a Memory Like Mine
TTITLE8=Sing to Me
TTITLE9=Pretend
TTITLE10=1952 Vincent Black Lightning
TTITLE11=Lay Down Your Burden
TTITLE12=Copper Ponies
EXTD=
EXTT0=
EXTT1=
EXTT2=
EXTT3=
EXTT4=
EXTT5=
EXTT6=
EXTT7=
EXTT8=
EXTT9=
EXTT10=
EXTT11=
EXTT12=
PLAYORDER=
